<svg width="72" height="72" viewBox="0 0 72 72" fill="none" xmlns="http://www.w3.org/2000/svg">
<path d="M38.2578 17.7726C36.6176 18.8582 35.037 20.1172 33.5771 21.5772C31.4263 23.728 31.4841 23.8447 29.5608 26.0461M38.2578 17.7726C48.534 10.9706 61.1543 10.9706 61.1543 10.9706C61.1543 10.9706 61.1543 23.5909 54.3523 33.8671M38.2578 17.7726L54.3523 33.8671M54.3523 33.8671C53.2666 35.5073 52.0076 37.0878 50.5477 38.5477C48.3969 40.6985 48.2802 40.6408 46.0787 42.5641M18.3457 40.2869C17.2283 41.8577 16.6065 42.7904 16.6065 42.7904L29.3345 55.5183C29.3345 55.5183 30.2672 54.8965 31.838 53.7792M18.3457 40.2869L8.12126 30.0624L25.0918 21.5772L29.5608 26.0461M18.3457 40.2869C20.5189 37.2316 24.5669 31.7622 29.5608 26.0461M31.838 53.7792L42.0624 64.0036L50.5477 47.033L46.0787 42.5641M31.838 53.7792C34.8933 51.6059 40.3627 47.5579 46.0787 42.5641" stroke="#443EDF" stroke-width="4"/>
<path d="M15.0001 56.9999C16.0509 52.7474 17.9998 51.0002 19.5 52.5C21.0001 53.9999 19.2525 55.949 15.0001 56.9999Z" stroke="#443EDF" stroke-width="2"/>
</svg>
