<svg width="42" height="40" viewBox="0 0 42 40" fill="none" xmlns="http://www.w3.org/2000/svg">
<path d="M22.9012 3.85416C22.3032 2.01216 19.6972 2.01216 19.0972 3.85416L16.0592 13.2022C15.9284 13.6035 15.6739 13.9531 15.3323 14.201C14.9906 14.4488 14.5793 14.5823 14.1572 14.5822H4.32921C2.39321 14.5822 1.58521 17.0622 3.15321 18.2022L11.1052 23.9782C11.4468 24.2265 11.701 24.5766 11.8314 24.9782C11.9618 25.3799 11.9618 25.8125 11.8312 26.2142L8.79521 35.5622C8.19521 37.4042 10.3052 38.9382 11.8712 37.7982L19.8232 32.0222C20.165 31.7737 20.5767 31.6399 20.9992 31.6399C21.4218 31.6399 21.8334 31.7737 22.1752 32.0222L30.1272 37.7982C31.6932 38.9382 33.8032 37.4062 33.2032 35.5622L30.1672 26.2142C30.0367 25.8125 30.0366 25.3799 30.167 24.9782C30.2974 24.5766 30.5516 24.2265 30.8932 23.9782L38.8452 18.2022C40.4112 17.0622 39.6072 14.5822 37.6692 14.5822H27.8392C27.4175 14.5818 27.0066 14.4482 26.6654 14.2004C26.3241 13.9525 26.07 13.6031 25.9392 13.2022L22.9012 3.85416Z" stroke="#443EDF" stroke-width="3.6" stroke-linecap="round" stroke-linejoin="round"/>
</svg>
