<svg width="40" height="40" viewBox="0 0 40 40" fill="none" xmlns="http://www.w3.org/2000/svg">
<path d="M15.325 30.0002H24.671M19.999 2.00024V4.00024M32.727 7.27224L31.313 8.68624M37.999 20.0002H35.999M3.99902 20.0002H1.99902M8.68502 8.68624L7.27102 7.27224M12.927 27.0722C11.5288 25.6736 10.5766 23.8918 10.191 21.952C9.80534 20.0123 10.0035 18.0018 10.7605 16.1747C11.5174 14.3476 12.7992 12.7859 14.4436 11.6872C16.088 10.5885 18.0213 10.0021 19.999 10.0021C21.9767 10.0021 23.91 10.5885 25.5545 11.6872C27.1989 12.7859 28.4806 14.3476 29.2376 16.1747C29.9945 18.0018 30.1927 20.0123 29.8071 21.952C29.4214 23.8918 28.4693 25.6736 27.071 27.0722L25.975 28.1662C25.3484 28.7929 24.8514 29.5369 24.5124 30.3557C24.1734 31.1745 23.9989 32.052 23.999 32.9382V34.0002C23.999 35.0611 23.5776 36.0785 22.8274 36.8287C22.0773 37.5788 21.0599 38.0002 19.999 38.0002C18.9382 38.0002 17.9207 37.5788 17.1706 36.8287C16.4205 36.0785 15.999 35.0611 15.999 34.0002V32.9382C15.999 31.1482 15.287 29.4302 14.023 28.1662L12.927 27.0722Z" stroke="#443EDF" stroke-width="3.6" stroke-linecap="round" stroke-linejoin="round"/>
</svg>
