<svg width="67" height="40" viewBox="0 0 80 48" fill="none" xmlns="http://www.w3.org/2000/svg">
<path d="M0.501526 18.3444V0.384277H6.83381L10.3448 16.0434H10.7836V0.384277H14.0438V18.3444H7.71155L4.20058 2.68522H3.76171V18.3444H0.501526Z" fill="#121212"/>
<path d="M21.3793 18.727C20.5015 18.727 19.6865 18.5992 18.9968 18.2796C18.3072 17.96 17.7429 17.5126 17.304 16.8735C16.8652 16.2343 16.6771 15.5313 16.6771 14.6365C16.6771 13.7417 16.8652 13.0386 17.304 12.4634C17.7429 11.8881 18.3072 11.4407 18.9968 11.1211C19.7492 10.8016 20.5642 10.6737 21.5046 10.6737H24.9529V9.97067C24.9529 9.39544 24.7648 8.88412 24.3887 8.50063C24.0125 8.11714 23.4482 7.92539 22.6332 7.92539C21.8181 7.92539 21.2539 8.11714 20.8777 8.50063C20.5015 8.88412 20.2507 9.33152 20.1253 9.90676L17.1786 8.88412C17.3667 8.24497 17.6802 7.60582 18.1191 7.0945C18.5579 6.58318 19.1849 6.13578 19.9372 5.75229C20.6896 5.43271 21.5673 5.24097 22.6959 5.24097C24.326 5.24097 25.6426 5.68837 26.583 6.51927C27.5235 7.35016 28.025 8.56454 28.025 10.1624V14.8921C28.025 15.4034 28.2758 15.6591 28.7147 15.6591H29.7178V18.3435H27.5862C26.9592 18.3435 26.4576 18.2157 26.0188 17.8961C25.6426 17.5765 25.3918 17.1931 25.3918 16.6817H24.8902C24.8275 16.8735 24.7021 17.1291 24.4514 17.5126C24.2006 17.8322 23.8244 18.1518 23.3228 18.4074C22.9467 18.5992 22.257 18.727 21.3793 18.727ZM21.8808 16.1065C22.7586 16.1065 23.5109 15.8508 24.0752 15.3395C24.6394 14.8282 24.8902 14.1891 24.8902 13.2942V13.0386H21.6927C21.1285 13.0386 20.6269 13.1664 20.3134 13.4221C19.9999 13.6777 19.8119 14.0612 19.8119 14.5086C19.8119 14.956 19.9999 15.3395 20.3134 15.6591C20.7523 15.9787 21.2539 16.1065 21.8808 16.1065Z" fill="#121212"/>
<path d="M36.4262 18.5353C35.4231 18.5353 34.6081 18.2797 33.8557 17.8323C33.1034 17.3849 32.5391 16.7457 32.1629 15.9148C31.7867 15.0839 31.5359 14.1891 31.5359 13.1665V5.62451H34.7334V12.9747C34.7334 13.9335 34.9842 14.6365 35.4231 15.1478C35.862 15.6592 36.5516 15.8509 37.4294 15.8509C38.4325 15.8509 39.1849 15.5313 39.6864 14.8922C40.188 14.253 40.5015 13.2943 40.5015 12.1438V5.62451H43.699V18.3436H40.5642V16.6818H40.1253C39.9372 17.1292 39.561 17.5127 38.9968 17.9601C38.4325 18.3436 37.5548 18.5353 36.4262 18.5353Z" fill="#121212"/>
<path d="M47.21 18.3444V0.384277H50.4075V10.355H50.8464L54.9843 5.6253H59.1222L53.3542 11.8251L59.3103 18.4083H55.2351L50.8464 13.359H50.4075V18.3444H47.21Z" fill="#121212"/>
<path d="M63.0094 4.09056C62.4452 4.09056 61.9436 3.89881 61.5674 3.51532C61.1913 3.13183 61.0032 2.62051 61.0032 2.04528C61.0032 1.40613 61.1913 0.958724 61.5674 0.575234C61.9436 0.191745 62.4452 0 63.0094 0C63.5737 0 64.0753 0.191745 64.4514 0.575234C64.8276 0.958724 65.0157 1.47004 65.0157 2.04528C65.0157 2.68443 64.8276 3.13183 64.4514 3.51532C64.0753 3.96273 63.5737 4.09056 63.0094 4.09056ZM61.4421 18.3436V5.62452H64.6395V18.3436H61.4421Z" fill="#121212"/>
<path d="M67.7115 18.3437V5.62461H70.8463V7.2864H71.2852C71.4733 6.83899 71.8495 6.39159 72.4137 6.0081C72.978 5.62461 73.7931 5.43286 74.9216 5.43286C75.9247 5.43286 76.7398 5.68852 77.4921 6.13593C78.2445 6.58333 78.8087 7.22248 79.1849 7.98946C79.5611 8.75644 79.8119 9.71516 79.8119 10.8017V18.3437H76.6144V10.9935C76.6144 10.0347 76.3636 9.33167 75.9247 8.82035C75.4858 8.37295 74.7962 8.11729 73.9184 8.11729C72.9153 8.11729 72.163 8.43686 71.6614 9.07601C71.0971 9.71516 70.8463 10.6739 70.8463 11.8244V18.3437H67.7115Z" fill="#121212"/>
<path d="M0 42.8231V39.8191H2.31975V27.8031H0V24.7991H7.27273C9.65517 24.7991 11.4734 25.4382 12.6646 26.6526C13.9185 27.867 14.5455 29.7205 14.5455 32.0854V35.4729C14.5455 37.9016 13.9185 39.6913 12.6646 40.9056C11.4107 42.12 9.65517 42.7592 7.27273 42.7592H0V42.8231ZM5.64263 39.6913H7.33543C8.65204 39.6913 9.65517 39.3078 10.2821 38.6047C10.9091 37.9016 11.2226 36.879 11.2226 35.6007V32.0215C11.2226 30.6793 10.9091 29.6566 10.2821 28.9535C9.65517 28.2505 8.65204 27.867 7.33543 27.867H5.64263V39.6913Z" fill="#121212"/>
<path d="M23.0721 43.1425C21.8182 43.1425 20.7524 42.8869 19.812 42.3117C18.8715 41.8003 18.1192 41.0334 17.6176 40.0107C17.116 39.052 16.8026 37.8376 16.8026 36.5593V36.2397C16.8026 34.8975 17.0533 33.747 17.5549 32.7883C18.0565 31.8296 18.8088 31.0626 19.7493 30.4874C20.6897 29.9761 21.7555 29.6565 23.0095 29.6565C24.2634 29.6565 25.3292 29.9122 26.2069 30.4874C27.0847 31.0626 27.837 31.8296 28.3386 32.7883C28.8402 33.747 29.091 34.8975 29.091 36.2397V37.3263H20C20.0627 38.2211 20.3762 38.9242 20.9405 39.4355C21.5674 40.0107 22.2571 40.2664 23.1348 40.2664C24.0126 40.2664 24.7022 40.0746 25.0784 39.6911C25.5173 39.3077 25.8308 38.8602 26.0189 38.3489L28.5894 39.7551C28.3386 40.2025 28.0251 40.7138 27.5863 41.2251C27.1474 41.7364 26.5204 42.1838 25.8308 42.5673C25.1411 42.9508 24.2007 43.1425 23.0721 43.1425ZM20 34.9614H25.8308C25.7681 34.1945 25.4546 33.6192 24.953 33.1718C24.4515 32.7244 23.7618 32.5327 22.9468 32.5327C22.069 32.5327 21.3794 32.7244 20.8778 33.1718C20.4389 33.6192 20.1254 34.2584 20 34.9614Z" fill="#121212"/>
<path d="M37.116 43.1425C35.4859 43.1425 34.1693 42.7591 33.1035 42.056C32.0376 41.3529 31.4107 40.3303 31.2226 38.9881L34.1693 38.2211C34.2947 38.7963 34.4828 39.3077 34.7336 39.6272C34.9844 39.9468 35.3605 40.2025 35.7367 40.3303C36.1756 40.4581 36.6144 40.522 37.116 40.522C37.8684 40.522 38.4326 40.3942 38.7461 40.1385C39.1223 39.8829 39.2477 39.5633 39.2477 39.1798C39.2477 38.7963 39.0596 38.4768 38.7461 38.285C38.4326 38.0933 37.8684 37.9015 37.116 37.7737L36.4264 37.6459C35.5486 37.4541 34.7336 37.2624 34.0439 36.9428C33.2916 36.6232 32.7273 36.2397 32.2884 35.6645C31.8496 35.1532 31.6615 34.4501 31.6615 33.6192C31.6615 32.3409 32.1003 31.3822 33.0408 30.6791C33.9185 29.9761 35.1097 29.6565 36.6144 29.6565C37.9938 29.6565 39.185 29.9761 40.0627 30.6152C41.0032 31.2544 41.5674 32.0853 41.8809 33.1079L38.9342 34.0027C38.8088 33.3636 38.4953 32.9162 38.1191 32.5966C37.6803 32.3409 37.1787 32.2131 36.6144 32.2131C35.9875 32.2131 35.5486 32.3409 35.2351 32.5327C34.9217 32.7244 34.7336 33.044 34.7336 33.4275C34.7336 33.811 34.9217 34.1305 35.2351 34.3223C35.5486 34.514 36.0502 34.6419 36.6144 34.7697L37.3041 34.8975C38.2445 35.0893 39.1223 35.281 39.8746 35.6006C40.627 35.8562 41.2539 36.3036 41.6928 36.815C42.1317 37.3263 42.3825 38.0293 42.3825 38.9242C42.3825 40.2664 41.8809 41.289 40.9405 41.9921C40 42.823 38.6834 43.1425 37.116 43.1425Z" fill="#121212"/>
<path d="M46.7084 28.5698C46.1442 28.5698 45.6426 28.3781 45.2664 27.9946C44.8902 27.6111 44.7021 27.0998 44.7021 26.5245C44.7021 25.8854 44.8902 25.438 45.2664 25.0545C45.6426 24.671 46.1442 24.4792 46.7084 24.4792C47.2727 24.4792 47.7742 24.671 48.1504 25.0545C48.5266 25.438 48.7147 25.9493 48.7147 26.5245C48.7147 27.1637 48.5266 27.6111 48.1504 27.9946C47.7742 28.3781 47.2727 28.5698 46.7084 28.5698ZM45.141 42.8228V30.0398H48.3385V42.7589H45.141V42.8228Z" fill="#121212"/>
<path d="M51.2225 36.4952V36.1117C51.2225 34.7695 51.4733 33.619 51.9749 32.6603C52.4765 31.7016 53.1661 30.9985 54.0438 30.4872C54.9216 29.9759 55.862 29.7202 56.8652 29.7202C57.9937 29.7202 58.8714 29.912 59.4357 30.3594C60 30.7429 60.4388 31.1903 60.6896 31.6377H61.1285V30.1037H64.2633V45.1237C64.2633 46.0185 64.0125 46.7216 63.5109 47.2329C63.0094 47.7442 62.3197 47.9999 61.5047 47.9999H53.2288V45.1876H60.5015C61.0031 45.1876 61.1912 44.932 61.1912 44.4207V41.0971H60.7523C60.5642 41.3527 60.3761 41.6723 60.0627 41.928C59.7492 42.1836 59.373 42.4393 58.8714 42.631C58.3699 42.8228 57.7429 42.8867 56.9279 42.8867C55.9247 42.8867 54.9843 42.631 54.1065 42.1197C53.2288 41.6084 52.5392 40.9053 52.0376 39.9466C51.4733 38.9879 51.2225 37.8374 51.2225 36.4952ZM57.8056 40.0105C58.8087 40.0105 59.6238 39.6909 60.2507 39.0518C60.8777 38.4127 61.2539 37.5178 61.2539 36.3674V36.1117C61.2539 34.9612 60.9404 34.0664 60.3134 33.4273C59.6865 32.7881 58.8714 32.4686 57.8683 32.4686C56.8652 32.4686 56.0501 32.7881 55.4232 33.4273C54.7962 34.0664 54.42 34.9612 54.42 36.1117V36.3674C54.42 37.5178 54.7335 38.4127 55.4232 39.0518C56.0501 39.6909 56.8652 40.0105 57.8056 40.0105Z" fill="#121212"/>
<path d="M67.8997 42.8231V30.0401H71.0345V31.7019H71.4733C71.6614 31.2545 72.0376 30.8071 72.6019 30.4236C73.1661 30.0401 73.9812 29.8484 75.1097 29.8484C76.1128 29.8484 76.9279 30.104 77.6802 30.5515C78.4326 30.9989 78.9968 31.638 79.373 32.405C79.7492 33.172 80 34.1307 80 35.2172V42.8231H76.8025V35.4729C76.8025 34.5142 76.5517 33.8111 76.1128 33.2998C75.674 32.7885 74.9843 32.5967 74.1066 32.5967C73.1034 32.5967 72.3511 32.9163 71.8495 33.5555C71.2852 34.1946 71.0345 35.1533 71.0345 36.3038V42.7592H67.8997V42.8231Z" fill="#121212"/>
</svg>
