<svg width="116" height="36" viewBox="0 0 116 36" fill="none" xmlns="http://www.w3.org/2000/svg">
<circle cx="35.5" cy="0.5" r="0.5" transform="rotate(90 35.5 0.5)" fill="#121212"/>
<circle cx="15.5" cy="0.5" r="0.5" transform="rotate(90 15.5 0.5)" fill="#121212"/>
<circle cx="35.5" cy="20.5" r="0.5" transform="rotate(90 35.5 20.5)" fill="#121212"/>
<circle cx="15.5" cy="20.5" r="0.5" transform="rotate(90 15.5 20.5)" fill="#121212"/>
<circle cx="25.5" cy="0.5" r="0.5" transform="rotate(90 25.5 0.5)" fill="#121212"/>
<circle cx="5.5" cy="0.5" r="0.5" transform="rotate(90 5.5 0.5)" fill="#121212"/>
<circle cx="25.5" cy="20.5" r="0.5" transform="rotate(90 25.5 20.5)" fill="#121212"/>
<circle cx="5.5" cy="20.5" r="0.5" transform="rotate(90 5.5 20.5)" fill="#121212"/>
<circle cx="35.5" cy="10.5" r="0.5" transform="rotate(90 35.5 10.5)" fill="#121212"/>
<circle cx="15.5" cy="10.5" r="0.5" transform="rotate(90 15.5 10.5)" fill="#121212"/>
<circle cx="35.5" cy="30.5" r="0.5" transform="rotate(90 35.5 30.5)" fill="#121212"/>
<circle cx="15.5" cy="30.5" r="0.5" transform="rotate(90 15.5 30.5)" fill="#121212"/>
<circle cx="25.5" cy="10.5" r="0.5" transform="rotate(90 25.5 10.5)" fill="#121212"/>
<circle cx="5.5" cy="10.5" r="0.5" transform="rotate(90 5.5 10.5)" fill="#121212"/>
<circle cx="25.5" cy="30.5" r="0.5" transform="rotate(90 25.5 30.5)" fill="#121212"/>
<circle cx="5.5" cy="30.5" r="0.5" transform="rotate(90 5.5 30.5)" fill="#121212"/>
<circle cx="30.5" cy="0.5" r="0.5" transform="rotate(90 30.5 0.5)" fill="#121212"/>
<circle cx="10.5" cy="0.5" r="0.5" transform="rotate(90 10.5 0.5)" fill="#121212"/>
<circle cx="30.5" cy="20.5" r="0.5" transform="rotate(90 30.5 20.5)" fill="#121212"/>
<circle cx="10.5" cy="20.5" r="0.5" transform="rotate(90 10.5 20.5)" fill="#121212"/>
<circle cx="20.5" cy="0.5" r="0.5" transform="rotate(90 20.5 0.5)" fill="#121212"/>
<circle cx="0.5" cy="0.5" r="0.5" transform="rotate(90 0.5 0.5)" fill="#121212"/>
<circle cx="20.5" cy="20.5" r="0.5" transform="rotate(90 20.5 20.5)" fill="#121212"/>
<circle cx="0.5" cy="20.5" r="0.5" transform="rotate(90 0.5 20.5)" fill="#121212"/>
<circle cx="30.5" cy="10.5" r="0.5" transform="rotate(90 30.5 10.5)" fill="#121212"/>
<circle cx="10.5" cy="10.5" r="0.5" transform="rotate(90 10.5 10.5)" fill="#121212"/>
<circle cx="30.5" cy="30.5" r="0.5" transform="rotate(90 30.5 30.5)" fill="#121212"/>
<circle cx="10.5" cy="30.5" r="0.5" transform="rotate(90 10.5 30.5)" fill="#121212"/>
<circle cx="20.5" cy="10.5" r="0.5" transform="rotate(90 20.5 10.5)" fill="#121212"/>
<circle cx="0.5" cy="10.5" r="0.5" transform="rotate(90 0.5 10.5)" fill="#121212"/>
<circle cx="20.5" cy="30.5" r="0.5" transform="rotate(90 20.5 30.5)" fill="#121212"/>
<circle cx="0.5" cy="30.5" r="0.5" transform="rotate(90 0.5 30.5)" fill="#121212"/>
<circle cx="35.5" cy="5.5" r="0.5" transform="rotate(90 35.5 5.5)" fill="#121212"/>
<circle cx="15.5" cy="5.5" r="0.5" transform="rotate(90 15.5 5.5)" fill="#121212"/>
<circle cx="35.5" cy="25.5" r="0.5" transform="rotate(90 35.5 25.5)" fill="#121212"/>
<circle cx="15.5" cy="25.5" r="0.5" transform="rotate(90 15.5 25.5)" fill="#121212"/>
<circle cx="25.5" cy="5.5" r="0.5" transform="rotate(90 25.5 5.5)" fill="#121212"/>
<circle cx="5.5" cy="5.5" r="0.5" transform="rotate(90 5.5 5.5)" fill="#121212"/>
<circle cx="25.5" cy="25.5" r="0.5" transform="rotate(90 25.5 25.5)" fill="#121212"/>
<circle cx="5.5" cy="25.5" r="0.5" transform="rotate(90 5.5 25.5)" fill="#121212"/>
<circle cx="35.5" cy="15.5" r="0.5" transform="rotate(90 35.5 15.5)" fill="#121212"/>
<circle cx="15.5" cy="15.5" r="0.5" transform="rotate(90 15.5 15.5)" fill="#121212"/>
<circle cx="35.5" cy="35.5" r="0.5" transform="rotate(90 35.5 35.5)" fill="#121212"/>
<circle cx="15.5" cy="35.5" r="0.5" transform="rotate(90 15.5 35.5)" fill="#121212"/>
<circle cx="25.5" cy="15.5" r="0.5" transform="rotate(90 25.5 15.5)" fill="#121212"/>
<circle cx="5.5" cy="15.5" r="0.5" transform="rotate(90 5.5 15.5)" fill="#121212"/>
<circle cx="25.5" cy="35.5" r="0.5" transform="rotate(90 25.5 35.5)" fill="#121212"/>
<circle cx="5.5" cy="35.5" r="0.5" transform="rotate(90 5.5 35.5)" fill="#121212"/>
<circle cx="30.5" cy="5.5" r="0.5" transform="rotate(90 30.5 5.5)" fill="#121212"/>
<circle cx="10.5" cy="5.5" r="0.5" transform="rotate(90 10.5 5.5)" fill="#121212"/>
<circle cx="30.5" cy="25.5" r="0.5" transform="rotate(90 30.5 25.5)" fill="#121212"/>
<circle cx="10.5" cy="25.5" r="0.5" transform="rotate(90 10.5 25.5)" fill="#121212"/>
<circle cx="20.5" cy="5.5" r="0.5" transform="rotate(90 20.5 5.5)" fill="#121212"/>
<circle cx="0.5" cy="5.5" r="0.5" transform="rotate(90 0.5 5.5)" fill="#121212"/>
<circle cx="20.5" cy="25.5" r="0.5" transform="rotate(90 20.5 25.5)" fill="#121212"/>
<circle cx="0.5" cy="25.5" r="0.5" transform="rotate(90 0.5 25.5)" fill="#121212"/>
<circle cx="30.5" cy="15.5" r="0.5" transform="rotate(90 30.5 15.5)" fill="#121212"/>
<circle cx="10.5" cy="15.5" r="0.5" transform="rotate(90 10.5 15.5)" fill="#121212"/>
<circle cx="30.5" cy="35.5" r="0.5" transform="rotate(90 30.5 35.5)" fill="#121212"/>
<circle cx="10.5" cy="35.5" r="0.5" transform="rotate(90 10.5 35.5)" fill="#121212"/>
<circle cx="20.5" cy="15.5" r="0.5" transform="rotate(90 20.5 15.5)" fill="#121212"/>
<circle cx="0.5" cy="15.5" r="0.5" transform="rotate(90 0.5 15.5)" fill="#121212"/>
<circle cx="20.5" cy="35.5" r="0.5" transform="rotate(90 20.5 35.5)" fill="#121212"/>
<circle cx="0.5" cy="35.5" r="0.5" transform="rotate(90 0.5 35.5)" fill="#121212"/>
<circle cx="75.5" cy="0.5" r="0.5" transform="rotate(90 75.5 0.5)" fill="#121212"/>
<circle cx="55.5" cy="0.5" r="0.5" transform="rotate(90 55.5 0.5)" fill="#121212"/>
<circle cx="75.5" cy="20.5" r="0.5" transform="rotate(90 75.5 20.5)" fill="#121212"/>
<circle cx="55.5" cy="20.5" r="0.5" transform="rotate(90 55.5 20.5)" fill="#121212"/>
<circle cx="65.5" cy="0.5" r="0.5" transform="rotate(90 65.5 0.5)" fill="#121212"/>
<circle cx="45.5" cy="0.5" r="0.5" transform="rotate(90 45.5 0.5)" fill="#121212"/>
<circle cx="65.5" cy="20.5" r="0.5" transform="rotate(90 65.5 20.5)" fill="#121212"/>
<circle cx="45.5" cy="20.5" r="0.5" transform="rotate(90 45.5 20.5)" fill="#121212"/>
<circle cx="75.5" cy="10.5" r="0.5" transform="rotate(90 75.5 10.5)" fill="#121212"/>
<circle cx="55.5" cy="10.5" r="0.5" transform="rotate(90 55.5 10.5)" fill="#121212"/>
<circle cx="75.5" cy="30.5" r="0.5" transform="rotate(90 75.5 30.5)" fill="#121212"/>
<circle cx="55.5" cy="30.5" r="0.5" transform="rotate(90 55.5 30.5)" fill="#121212"/>
<circle cx="65.5" cy="10.5" r="0.5" transform="rotate(90 65.5 10.5)" fill="#121212"/>
<circle cx="45.5" cy="10.5" r="0.5" transform="rotate(90 45.5 10.5)" fill="#121212"/>
<circle cx="65.5" cy="30.5" r="0.5" transform="rotate(90 65.5 30.5)" fill="#121212"/>
<circle cx="45.5" cy="30.5" r="0.5" transform="rotate(90 45.5 30.5)" fill="#121212"/>
<circle cx="70.5" cy="0.5" r="0.5" transform="rotate(90 70.5 0.5)" fill="#121212"/>
<circle cx="50.5" cy="0.5" r="0.5" transform="rotate(90 50.5 0.5)" fill="#121212"/>
<circle cx="70.5" cy="20.5" r="0.5" transform="rotate(90 70.5 20.5)" fill="#121212"/>
<circle cx="50.5" cy="20.5" r="0.5" transform="rotate(90 50.5 20.5)" fill="#121212"/>
<circle cx="60.5" cy="0.5" r="0.5" transform="rotate(90 60.5 0.5)" fill="#121212"/>
<circle cx="40.5" cy="0.5" r="0.5" transform="rotate(90 40.5 0.5)" fill="#121212"/>
<circle cx="60.5" cy="20.5" r="0.5" transform="rotate(90 60.5 20.5)" fill="#121212"/>
<circle cx="40.5" cy="20.5" r="0.5" transform="rotate(90 40.5 20.5)" fill="#121212"/>
<circle cx="70.5" cy="10.5" r="0.5" transform="rotate(90 70.5 10.5)" fill="#121212"/>
<circle cx="50.5" cy="10.5" r="0.5" transform="rotate(90 50.5 10.5)" fill="#121212"/>
<circle cx="70.5" cy="30.5" r="0.5" transform="rotate(90 70.5 30.5)" fill="#121212"/>
<circle cx="50.5" cy="30.5" r="0.5" transform="rotate(90 50.5 30.5)" fill="#121212"/>
<circle cx="60.5" cy="10.5" r="0.5" transform="rotate(90 60.5 10.5)" fill="#121212"/>
<circle cx="40.5" cy="10.5" r="0.5" transform="rotate(90 40.5 10.5)" fill="#121212"/>
<circle cx="60.5" cy="30.5" r="0.5" transform="rotate(90 60.5 30.5)" fill="#121212"/>
<circle cx="40.5" cy="30.5" r="0.5" transform="rotate(90 40.5 30.5)" fill="#121212"/>
<circle cx="75.5" cy="5.5" r="0.5" transform="rotate(90 75.5 5.5)" fill="#121212"/>
<circle cx="55.5" cy="5.5" r="0.5" transform="rotate(90 55.5 5.5)" fill="#121212"/>
<circle cx="75.5" cy="25.5" r="0.5" transform="rotate(90 75.5 25.5)" fill="#121212"/>
<circle cx="55.5" cy="25.5" r="0.5" transform="rotate(90 55.5 25.5)" fill="#121212"/>
<circle cx="65.5" cy="5.5" r="0.5" transform="rotate(90 65.5 5.5)" fill="#121212"/>
<circle cx="45.5" cy="5.5" r="0.5" transform="rotate(90 45.5 5.5)" fill="#121212"/>
<circle cx="65.5" cy="25.5" r="0.5" transform="rotate(90 65.5 25.5)" fill="#121212"/>
<circle cx="45.5" cy="25.5" r="0.5" transform="rotate(90 45.5 25.5)" fill="#121212"/>
<circle cx="75.5" cy="15.5" r="0.5" transform="rotate(90 75.5 15.5)" fill="#121212"/>
<circle cx="55.5" cy="15.5" r="0.5" transform="rotate(90 55.5 15.5)" fill="#121212"/>
<circle cx="75.5" cy="35.5" r="0.5" transform="rotate(90 75.5 35.5)" fill="#121212"/>
<circle cx="55.5" cy="35.5" r="0.5" transform="rotate(90 55.5 35.5)" fill="#121212"/>
<circle cx="65.5" cy="15.5" r="0.5" transform="rotate(90 65.5 15.5)" fill="#121212"/>
<circle cx="45.5" cy="15.5" r="0.5" transform="rotate(90 45.5 15.5)" fill="#121212"/>
<circle cx="65.5" cy="35.5" r="0.5" transform="rotate(90 65.5 35.5)" fill="#121212"/>
<circle cx="45.5" cy="35.5" r="0.5" transform="rotate(90 45.5 35.5)" fill="#121212"/>
<circle cx="70.5" cy="5.5" r="0.5" transform="rotate(90 70.5 5.5)" fill="#121212"/>
<circle cx="50.5" cy="5.5" r="0.5" transform="rotate(90 50.5 5.5)" fill="#121212"/>
<circle cx="70.5" cy="25.5" r="0.5" transform="rotate(90 70.5 25.5)" fill="#121212"/>
<circle cx="50.5" cy="25.5" r="0.5" transform="rotate(90 50.5 25.5)" fill="#121212"/>
<circle cx="60.5" cy="5.5" r="0.5" transform="rotate(90 60.5 5.5)" fill="#121212"/>
<circle cx="40.5" cy="5.5" r="0.5" transform="rotate(90 40.5 5.5)" fill="#121212"/>
<circle cx="60.5" cy="25.5" r="0.5" transform="rotate(90 60.5 25.5)" fill="#121212"/>
<circle cx="40.5" cy="25.5" r="0.5" transform="rotate(90 40.5 25.5)" fill="#121212"/>
<circle cx="70.5" cy="15.5" r="0.5" transform="rotate(90 70.5 15.5)" fill="#121212"/>
<circle cx="50.5" cy="15.5" r="0.5" transform="rotate(90 50.5 15.5)" fill="#121212"/>
<circle cx="70.5" cy="35.5" r="0.5" transform="rotate(90 70.5 35.5)" fill="#121212"/>
<circle cx="50.5" cy="35.5" r="0.5" transform="rotate(90 50.5 35.5)" fill="#121212"/>
<circle cx="60.5" cy="15.5" r="0.5" transform="rotate(90 60.5 15.5)" fill="#121212"/>
<circle cx="40.5" cy="15.5" r="0.5" transform="rotate(90 40.5 15.5)" fill="#121212"/>
<circle cx="60.5" cy="35.5" r="0.5" transform="rotate(90 60.5 35.5)" fill="#121212"/>
<circle cx="40.5" cy="35.5" r="0.5" transform="rotate(90 40.5 35.5)" fill="#121212"/>
<circle cx="115.5" cy="0.5" r="0.5" transform="rotate(90 115.5 0.5)" fill="#121212"/>
<circle cx="95.5" cy="0.5" r="0.5" transform="rotate(90 95.5 0.5)" fill="#121212"/>
<circle cx="115.5" cy="20.5" r="0.5" transform="rotate(90 115.5 20.5)" fill="#121212"/>
<circle cx="95.5" cy="20.5" r="0.5" transform="rotate(90 95.5 20.5)" fill="#121212"/>
<circle cx="105.5" cy="0.5" r="0.5" transform="rotate(90 105.5 0.5)" fill="#121212"/>
<circle cx="85.5" cy="0.5" r="0.5" transform="rotate(90 85.5 0.5)" fill="#121212"/>
<circle cx="105.5" cy="20.5" r="0.5" transform="rotate(90 105.5 20.5)" fill="#121212"/>
<circle cx="85.5" cy="20.5" r="0.5" transform="rotate(90 85.5 20.5)" fill="#121212"/>
<circle cx="115.5" cy="10.5" r="0.5" transform="rotate(90 115.5 10.5)" fill="#121212"/>
<circle cx="95.5" cy="10.5" r="0.5" transform="rotate(90 95.5 10.5)" fill="#121212"/>
<circle cx="115.5" cy="30.5" r="0.5" transform="rotate(90 115.5 30.5)" fill="#121212"/>
<circle cx="95.5" cy="30.5" r="0.5" transform="rotate(90 95.5 30.5)" fill="#121212"/>
<circle cx="105.5" cy="10.5" r="0.5" transform="rotate(90 105.5 10.5)" fill="#121212"/>
<circle cx="85.5" cy="10.5" r="0.5" transform="rotate(90 85.5 10.5)" fill="#121212"/>
<circle cx="105.5" cy="30.5" r="0.5" transform="rotate(90 105.5 30.5)" fill="#121212"/>
<circle cx="85.5" cy="30.5" r="0.5" transform="rotate(90 85.5 30.5)" fill="#121212"/>
<circle cx="110.5" cy="0.5" r="0.5" transform="rotate(90 110.5 0.5)" fill="#121212"/>
<circle cx="90.5" cy="0.5" r="0.5" transform="rotate(90 90.5 0.5)" fill="#121212"/>
<circle cx="110.5" cy="20.5" r="0.5" transform="rotate(90 110.5 20.5)" fill="#121212"/>
<circle cx="90.5" cy="20.5" r="0.5" transform="rotate(90 90.5 20.5)" fill="#121212"/>
<circle cx="100.5" cy="0.5" r="0.5" transform="rotate(90 100.5 0.5)" fill="#121212"/>
<circle cx="80.5" cy="0.5" r="0.5" transform="rotate(90 80.5 0.5)" fill="#121212"/>
<circle cx="100.5" cy="20.5" r="0.5" transform="rotate(90 100.5 20.5)" fill="#121212"/>
<circle cx="80.5" cy="20.5" r="0.5" transform="rotate(90 80.5 20.5)" fill="#121212"/>
<circle cx="110.5" cy="10.5" r="0.5" transform="rotate(90 110.5 10.5)" fill="#121212"/>
<circle cx="90.5" cy="10.5" r="0.5" transform="rotate(90 90.5 10.5)" fill="#121212"/>
<circle cx="110.5" cy="30.5" r="0.5" transform="rotate(90 110.5 30.5)" fill="#121212"/>
<circle cx="90.5" cy="30.5" r="0.5" transform="rotate(90 90.5 30.5)" fill="#121212"/>
<circle cx="100.5" cy="10.5" r="0.5" transform="rotate(90 100.5 10.5)" fill="#121212"/>
<circle cx="80.5" cy="10.5" r="0.5" transform="rotate(90 80.5 10.5)" fill="#121212"/>
<circle cx="100.5" cy="30.5" r="0.5" transform="rotate(90 100.5 30.5)" fill="#121212"/>
<circle cx="80.5" cy="30.5" r="0.5" transform="rotate(90 80.5 30.5)" fill="#121212"/>
<circle cx="115.5" cy="5.5" r="0.5" transform="rotate(90 115.5 5.5)" fill="#121212"/>
<circle cx="95.5" cy="5.5" r="0.5" transform="rotate(90 95.5 5.5)" fill="#121212"/>
<circle cx="115.5" cy="25.5" r="0.5" transform="rotate(90 115.5 25.5)" fill="#121212"/>
<circle cx="95.5" cy="25.5" r="0.5" transform="rotate(90 95.5 25.5)" fill="#121212"/>
<circle cx="105.5" cy="5.5" r="0.5" transform="rotate(90 105.5 5.5)" fill="#121212"/>
<circle cx="85.5" cy="5.5" r="0.5" transform="rotate(90 85.5 5.5)" fill="#121212"/>
<circle cx="105.5" cy="25.5" r="0.5" transform="rotate(90 105.5 25.5)" fill="#121212"/>
<circle cx="85.5" cy="25.5" r="0.5" transform="rotate(90 85.5 25.5)" fill="#121212"/>
<circle cx="115.5" cy="15.5" r="0.5" transform="rotate(90 115.5 15.5)" fill="#121212"/>
<circle cx="95.5" cy="15.5" r="0.5" transform="rotate(90 95.5 15.5)" fill="#121212"/>
<circle cx="115.5" cy="35.5" r="0.5" transform="rotate(90 115.5 35.5)" fill="#121212"/>
<circle cx="95.5" cy="35.5" r="0.5" transform="rotate(90 95.5 35.5)" fill="#121212"/>
<circle cx="105.5" cy="15.5" r="0.5" transform="rotate(90 105.5 15.5)" fill="#121212"/>
<circle cx="85.5" cy="15.5" r="0.5" transform="rotate(90 85.5 15.5)" fill="#121212"/>
<circle cx="105.5" cy="35.5" r="0.5" transform="rotate(90 105.5 35.5)" fill="#121212"/>
<circle cx="85.5" cy="35.5" r="0.5" transform="rotate(90 85.5 35.5)" fill="#121212"/>
<circle cx="110.5" cy="5.5" r="0.5" transform="rotate(90 110.5 5.5)" fill="#121212"/>
<circle cx="90.5" cy="5.5" r="0.5" transform="rotate(90 90.5 5.5)" fill="#121212"/>
<circle cx="110.5" cy="25.5" r="0.5" transform="rotate(90 110.5 25.5)" fill="#121212"/>
<circle cx="90.5" cy="25.5" r="0.5" transform="rotate(90 90.5 25.5)" fill="#121212"/>
<circle cx="100.5" cy="5.5" r="0.5" transform="rotate(90 100.5 5.5)" fill="#121212"/>
<circle cx="80.5" cy="5.5" r="0.5" transform="rotate(90 80.5 5.5)" fill="#121212"/>
<circle cx="100.5" cy="25.5" r="0.5" transform="rotate(90 100.5 25.5)" fill="#121212"/>
<circle cx="80.5" cy="25.5" r="0.5" transform="rotate(90 80.5 25.5)" fill="#121212"/>
<circle cx="110.5" cy="15.5" r="0.5" transform="rotate(90 110.5 15.5)" fill="#121212"/>
<circle cx="90.5" cy="15.5" r="0.5" transform="rotate(90 90.5 15.5)" fill="#121212"/>
<circle cx="110.5" cy="35.5" r="0.5" transform="rotate(90 110.5 35.5)" fill="#121212"/>
<circle cx="90.5" cy="35.5" r="0.5" transform="rotate(90 90.5 35.5)" fill="#121212"/>
<circle cx="100.5" cy="15.5" r="0.5" transform="rotate(90 100.5 15.5)" fill="#121212"/>
<circle cx="80.5" cy="15.5" r="0.5" transform="rotate(90 80.5 15.5)" fill="#121212"/>
<circle cx="100.5" cy="35.5" r="0.5" transform="rotate(90 100.5 35.5)" fill="#121212"/>
<circle cx="80.5" cy="35.5" r="0.5" transform="rotate(90 80.5 35.5)" fill="#121212"/>
</svg>
