<svg width="64" height="38" viewBox="0 0 64 38" fill="none" xmlns="http://www.w3.org/2000/svg">
<path d="M0.401245 14.5226V0.304199H5.46707L8.27584 12.701H8.62694V0.304199H11.2351V14.5226H6.16926L3.36049 2.12577H3.00939V14.5226H0.401245Z" fill="#F5F5F5"/>
<path d="M17.1034 14.8254C16.4012 14.8254 15.7492 14.7242 15.1975 14.4712C14.6457 14.2182 14.1943 13.864 13.8432 13.358C13.4921 12.852 13.3417 12.2954 13.3417 11.587C13.3417 10.8786 13.4921 10.322 13.8432 9.86664C14.1943 9.41125 14.6457 9.05705 15.1975 8.80406C15.7994 8.55106 16.4514 8.44986 17.2037 8.44986H19.9624V7.89327C19.9624 7.43788 19.8119 7.03308 19.511 6.72949C19.21 6.42589 18.7586 6.27409 18.1066 6.27409C17.4545 6.27409 17.0031 6.42589 16.7022 6.72949C16.4012 7.03308 16.2006 7.38728 16.1003 7.84267L13.7429 7.03308C13.8934 6.52709 14.1442 6.0211 14.4953 5.6163C14.8464 5.21151 15.3479 4.85731 15.9498 4.55372C16.5517 4.30072 17.2539 4.14893 18.1567 4.14893C19.4608 4.14893 20.5141 4.50312 21.2664 5.16091C22.0188 5.8187 22.42 6.78009 22.42 8.04507V11.7894C22.42 12.1942 22.6207 12.3966 22.9718 12.3966H23.7743V14.5218H22.0689C21.5674 14.5218 21.1661 14.4206 20.815 14.1676C20.5141 13.9146 20.3135 13.611 20.3135 13.2062H19.9122C19.8621 13.358 19.7617 13.5604 19.5611 13.864C19.3605 14.117 19.0595 14.37 18.6583 14.5724C18.3573 14.7242 17.8056 14.8254 17.1034 14.8254ZM17.5047 12.7508C18.2069 12.7508 18.8088 12.5484 19.2602 12.1436C19.7116 11.7388 19.9122 11.2328 19.9122 10.5244V10.322H17.3542C16.9028 10.322 16.5015 10.4232 16.2508 10.6256C16 10.828 15.8495 11.1316 15.8495 11.4858C15.8495 11.84 16 12.1436 16.2508 12.3966C16.6019 12.6496 17.0031 12.7508 17.5047 12.7508Z" fill="#F5F5F5"/>
<path d="M29.141 14.6737C28.3385 14.6737 27.6864 14.4713 27.0846 14.1171C26.4827 13.7629 26.0313 13.2569 25.7303 12.5991C25.4294 11.9413 25.2288 11.2329 25.2288 10.4233V4.45264H27.7868V10.2716C27.7868 11.0305 27.9874 11.5871 28.3385 11.9919C28.6896 12.3967 29.2413 12.5485 29.9435 12.5485C30.746 12.5485 31.3479 12.2955 31.7491 11.7895C32.1504 11.2835 32.4012 10.5245 32.4012 9.61376V4.45264H34.9592V14.5219H32.4513V13.2063H32.1002C31.9498 13.5605 31.6488 13.8641 31.1974 14.2183C30.746 14.5219 30.0438 14.6737 29.141 14.6737Z" fill="#F5F5F5"/>
<path d="M37.768 14.5226V0.304199H40.326V8.19768H40.6771L43.9874 4.45334H47.2978L42.6834 9.36146L47.4483 14.5732H44.1881L40.6771 10.5758H40.326V14.5226H37.768Z" fill="#F5F5F5"/>
<path d="M50.4075 3.23835C49.9561 3.23835 49.5548 3.08655 49.2539 2.78296C48.953 2.47936 48.8025 2.07457 48.8025 1.61918C48.8025 1.11318 48.953 0.758988 49.2539 0.455393C49.5548 0.151798 49.9561 0 50.4075 0C50.8589 0 51.2602 0.151798 51.5611 0.455393C51.862 0.758988 52.0125 1.16378 52.0125 1.61918C52.0125 2.12517 51.862 2.47936 51.5611 2.78296C51.2602 3.13715 50.8589 3.23835 50.4075 3.23835ZM49.1536 14.522V4.45273H51.7116V14.522H49.1536Z" fill="#F5F5F5"/>
<path d="M54.1693 14.5218V4.45258H56.6771V5.76816H57.0282C57.1787 5.41397 57.4796 5.05977 57.931 4.75618C58.3824 4.45258 59.0345 4.30078 59.9373 4.30078C60.7398 4.30078 61.3918 4.50318 61.9937 4.85737C62.5956 5.21157 63.047 5.71756 63.3479 6.32475C63.6489 6.93194 63.8495 7.69093 63.8495 8.55112V14.5218H61.2915V8.70292C61.2915 7.94393 61.0909 7.38734 60.7398 6.98254C60.3887 6.62835 59.837 6.42595 59.1348 6.42595C58.3323 6.42595 57.7304 6.67895 57.3291 7.18494C56.8777 7.69093 56.6771 8.44992 56.6771 9.36071V14.5218H54.1693Z" fill="#F5F5F5"/>
<path d="M0 33.9013V31.5232H1.8558V22.0105H0V19.6323H5.81818C7.72414 19.6323 9.17868 20.1383 10.1317 21.0997C11.1348 22.0611 11.6364 23.5285 11.6364 25.4006V28.0824C11.6364 30.0052 11.1348 31.422 10.1317 32.3833C9.12853 33.3447 7.72414 33.8507 5.81818 33.8507H0V33.9013ZM4.51411 31.422H5.86834C6.92163 31.422 7.72414 31.1184 8.2257 30.5618C8.72727 30.0052 8.97806 29.1956 8.97806 28.1836V25.35C8.97806 24.2875 8.72727 23.4779 8.2257 22.9213C7.72414 22.3647 6.92163 22.0611 5.86834 22.0611H4.51411V31.422Z" fill="#F5F5F5"/>
<path d="M18.4577 34.1545C17.4546 34.1545 16.6019 33.9521 15.8495 33.4967C15.0972 33.0919 14.4953 32.4847 14.0941 31.6751C13.6928 30.9161 13.442 29.9547 13.442 28.9427V28.6897C13.442 27.6272 13.6426 26.7164 14.0439 25.9574C14.4452 25.1984 15.047 24.5912 15.7994 24.1358C16.5517 23.731 17.4044 23.478 18.4075 23.478C19.4107 23.478 20.2633 23.6804 20.9655 24.1358C21.6677 24.5912 22.2696 25.1984 22.6709 25.9574C23.0721 26.7164 23.2727 27.6272 23.2727 28.6897V29.5499H16C16.0502 30.2583 16.301 30.8149 16.7524 31.2197C17.2539 31.6751 17.8057 31.8775 18.5079 31.8775C19.21 31.8775 19.7618 31.7257 20.0627 31.4221C20.4138 31.1185 20.6646 30.7643 20.8151 30.3595L22.8715 31.4727C22.6709 31.8269 22.4201 32.2317 22.069 32.6365C21.7179 33.0413 21.2163 33.3955 20.6646 33.6991C20.1129 34.0027 19.3605 34.1545 18.4577 34.1545ZM16 27.6778H20.6646C20.6144 27.0706 20.3636 26.6152 19.9624 26.261C19.5611 25.9068 19.0094 25.755 18.3574 25.755C17.6552 25.755 17.1035 25.9068 16.7022 26.261C16.3511 26.6152 16.1003 27.1212 16 27.6778Z" fill="#F5F5F5"/>
<path d="M29.6928 34.1545C28.3887 34.1545 27.3354 33.8509 26.4827 33.2943C25.6301 32.7377 25.1285 31.9281 24.978 30.8655L27.3354 30.2583C27.4357 30.7137 27.5862 31.1185 27.7868 31.3715C27.9874 31.6245 28.2884 31.8269 28.5893 31.9281C28.9404 32.0293 29.2915 32.0799 29.6928 32.0799C30.2946 32.0799 30.7461 31.9787 30.9968 31.7763C31.2978 31.5739 31.3981 31.3209 31.3981 31.0173C31.3981 30.7137 31.2476 30.4607 30.9968 30.3089C30.7461 30.1571 30.2946 30.0053 29.6928 29.9041L29.141 29.8029C28.4388 29.6511 27.7868 29.4993 27.2351 29.2463C26.6332 28.9933 26.1818 28.6897 25.8307 28.2344C25.4796 27.8296 25.3291 27.273 25.3291 26.6152C25.3291 25.6032 25.6802 24.8442 26.4326 24.2876C27.1348 23.731 28.0877 23.478 29.2915 23.478C30.395 23.478 31.3479 23.731 32.0501 24.237C32.8025 24.743 33.2539 25.4008 33.5047 26.2104L31.1473 26.9188C31.047 26.4128 30.7962 26.0586 30.4953 25.8056C30.1442 25.6032 29.7429 25.502 29.2915 25.502C28.7899 25.502 28.4388 25.6032 28.1881 25.755C27.9373 25.9068 27.7868 26.1598 27.7868 26.4634C27.7868 26.767 27.9373 27.02 28.1881 27.1718C28.4388 27.3236 28.8401 27.4248 29.2915 27.526L29.8432 27.6272C30.5956 27.779 31.2978 27.9308 31.8997 28.1838C32.5015 28.3862 33.0031 28.7403 33.3542 29.1451C33.7053 29.5499 33.9059 30.1065 33.9059 30.8149C33.9059 31.8775 33.5047 32.6871 32.7523 33.2437C32 33.9015 30.9467 34.1545 29.6928 34.1545Z" fill="#F5F5F5"/>
<path d="M37.3667 22.6177C36.9153 22.6177 36.5141 22.4659 36.2131 22.1624C35.9122 21.8588 35.7617 21.454 35.7617 20.9986C35.7617 20.4926 35.9122 20.1384 36.2131 19.8348C36.5141 19.5312 36.9153 19.3794 37.3667 19.3794C37.8182 19.3794 38.2194 19.5312 38.5203 19.8348C38.8213 20.1384 38.9718 20.5432 38.9718 20.9986C38.9718 21.5046 38.8213 21.8588 38.5203 22.1624C38.2194 22.4659 37.8182 22.6177 37.3667 22.6177ZM36.1128 33.9014V23.7815H38.6708V33.8508H36.1128V33.9014Z" fill="#F5F5F5"/>
<path d="M40.978 28.8923V28.5887C40.978 27.5262 41.1787 26.6154 41.5799 25.8564C41.9812 25.0974 42.5329 24.5408 43.2351 24.136C43.9373 23.7312 44.6896 23.5288 45.4921 23.5288C46.395 23.5288 47.0971 23.6806 47.5486 24.0348C48 24.3384 48.3511 24.6926 48.5517 25.0468H48.9028V23.8324H51.4106V35.7232C51.4106 36.4316 51.21 36.9882 50.8087 37.393C50.4075 37.7978 49.8558 38.0002 49.2037 38.0002H42.583V35.7738H48.4012C48.8025 35.7738 48.9529 35.5714 48.9529 35.1666V32.5355H48.6018C48.4514 32.7379 48.3009 32.9909 48.0501 33.1933C47.7993 33.3957 47.4984 33.5981 47.0971 33.7499C46.6959 33.9017 46.1943 33.9523 45.5423 33.9523C44.7398 33.9523 43.9874 33.7499 43.2852 33.3451C42.583 32.9403 42.0313 32.3837 41.6301 31.6247C41.1787 30.8657 40.978 29.9549 40.978 28.8923ZM46.2445 31.6753C47.047 31.6753 47.699 31.4223 48.2006 30.9163C48.7022 30.4103 49.0031 29.7019 49.0031 28.7911V28.5887C49.0031 27.6779 48.7523 26.9696 48.2508 26.4636C47.7492 25.9576 47.0971 25.7046 46.2946 25.7046C45.4921 25.7046 44.8401 25.9576 44.3385 26.4636C43.837 26.9696 43.536 27.6779 43.536 28.5887V28.7911C43.536 29.7019 43.7868 30.4103 44.3385 30.9163C44.8401 31.4223 45.4921 31.6753 46.2445 31.6753Z" fill="#F5F5F5"/>
<path d="M54.3197 33.9015V23.7817H56.8275V25.0973H57.1786C57.3291 24.7431 57.63 24.3889 58.0815 24.0853C58.5329 23.7817 59.1849 23.6299 60.0877 23.6299C60.8902 23.6299 61.5423 23.8323 62.1442 24.1865C62.746 24.5407 63.1974 25.0467 63.4984 25.6539C63.7993 26.261 64 27.02 64 27.8802V33.9015H61.442V28.0826C61.442 27.3236 61.2413 26.767 60.8902 26.3622C60.5391 25.9574 59.9874 25.8056 59.2852 25.8056C58.4827 25.8056 57.8808 26.0586 57.4796 26.5646C57.0282 27.0706 56.8275 27.8296 56.8275 28.7404V33.8509H54.3197V33.9015Z" fill="#F5F5F5"/>
</svg>
